<?xml version="1.0" encoding="UTF-8"?>
<svg width="968" height="256">
<g transform="translate(40, 0)">
<g style="font-size: 11px;" transform="translate(0, 224)" fill="none" font-size="10" font-family="sans-serif" text-anchor="middle" class="x_axis">
<g class="tick" opacity="1" transform="translate(16.192771084337366,0)">
    <line stroke="currentColor" y2="0"></line>
    <text fill="currentColor" y="16" dy="0.71em">15</text>
</g>
<g class="tick" opacity="1" transform="translate(47.03614457831327,0)">
    <line stroke="currentColor" y2="0"></line>
    <text fill="currentColor" y="16" dy="0.71em">16</text>
</g>
<g class="tick" opacity="1" transform="translate(77.87951807228917,0)">
    <line stroke="currentColor" y2="0"></line>
    <text fill="currentColor" y="16" dy="0.71em">17</text>
</g>
<g class="tick" opacity="1" transform="translate(108.72289156626508,0)"><line stroke="currentColor" y2="0"></line><text fill="currentColor" y="16" dy="0.71em">18</text></g><g class="tick" opacity="1" transform="translate(139.566265060241,0)"><line stroke="currentColor" y2="0"></line><text fill="currentColor" y="16" dy="0.71em">19</text></g><g class="tick" opacity="1" transform="translate(170.40963855421688,0)"><line stroke="currentColor" y2="0"></line><text fill="currentColor" y="16" dy="0.71em">20</text></g><g class="tick" opacity="1" transform="translate(201.2530120481928,0)"><line stroke="currentColor" y2="0"></line><text fill="currentColor" y="16" dy="0.71em">21</text></g><g class="tick" opacity="1" transform="translate(232.09638554216872,0)"><line stroke="currentColor" y2="0"></line><text fill="currentColor" y="16" dy="0.71em">22</text></g><g class="tick" opacity="1" transform="translate(262.9397590361446,0)"><line stroke="currentColor" y2="0"></line><text fill="currentColor" y="16" dy="0.71em">23</text></g><g class="tick" opacity="1" transform="translate(293.7831325301205,0)"><line stroke="currentColor" y2="0"></line><text fill="currentColor" y="16" dy="0.71em">24</text></g><g class="tick" opacity="1" transform="translate(324.6265060240964,0)"><line stroke="currentColor" y2="0"></line><text fill="currentColor" y="16" dy="0.71em">25</text></g><g class="tick" opacity="1" transform="translate(355.46987951807233,0)"><line stroke="currentColor" y2="0"></line><text fill="currentColor" y="16" dy="0.71em">26</text></g><g class="tick" opacity="1" transform="translate(386.3132530120482,0)"><line stroke="currentColor" y2="0"></line><text fill="currentColor" y="16" dy="0.71em">27</text></g><g class="tick" opacity="1" transform="translate(417.1566265060241,0)"><line stroke="currentColor" y2="0"></line><text fill="currentColor" y="16" dy="0.71em">28</text></g><g class="tick" opacity="1" transform="translate(448.00000000000006,0)"><line stroke="currentColor" y2="0"></line><text fill="currentColor" y="16" dy="0.71em">29</text></g><g class="tick" opacity="1" transform="translate(478.84337349397595,0)"><line stroke="currentColor" y2="0"></line><text fill="currentColor" y="16" dy="0.71em">30</text></g><g class="tick" opacity="1" transform="translate(509.68674698795184,0)"><line stroke="currentColor" y2="0"></line><text fill="currentColor" y="16" dy="0.71em">31</text></g><g class="tick" opacity="1" transform="translate(540.5301204819277,0)"><line stroke="currentColor" y2="0"></line><text fill="currentColor" y="16" dy="0.71em">32</text></g><g class="tick" opacity="1" transform="translate(571.3734939759036,0)"><line stroke="currentColor" y2="0"></line><text fill="currentColor" y="16" dy="0.71em">33</text></g><g class="tick" opacity="1" transform="translate(602.2168674698795,0)"><line stroke="currentColor" y2="0"></line><text fill="currentColor" y="16" dy="0.71em">34</text></g><g class="tick" opacity="1" transform="translate(633.0602409638553,0)"><line stroke="currentColor" y2="0"></line><text fill="currentColor" y="16" dy="0.71em">35</text></g><g class="tick" opacity="1" transform="translate(663.9036144578313,0)"><line stroke="currentColor" y2="0"></line><text fill="currentColor" y="16" dy="0.71em">36</text></g><g class="tick" opacity="1" transform="translate(694.7469879518072,0)"><line stroke="currentColor" y2="0"></line><text fill="currentColor" y="16" dy="0.71em">37</text></g><g class="tick" opacity="1" transform="translate(725.5903614457831,0)"><line stroke="currentColor" y2="0"></line><text fill="currentColor" y="16" dy="0.71em">38</text></g><g class="tick" opacity="1" transform="translate(756.433734939759,0)"><line stroke="currentColor" y2="0"></line><text fill="currentColor" y="16" dy="0.71em">39</text></g><g class="tick" opacity="1" transform="translate(787.277108433735,0)"><line stroke="currentColor" y2="0"></line><text fill="currentColor" y="16" dy="0.71em">40</text></g><g class="tick" opacity="1" transform="translate(818.1204819277108,0)"><line stroke="currentColor" y2="0"></line><text fill="currentColor" y="16" dy="0.71em">41</text></g><g class="tick" opacity="1" transform="translate(848.9638554216867,0)"><line stroke="currentColor" y2="0"></line><text fill="currentColor" y="16" dy="0.71em">42</text></g><g class="tick" opacity="1" transform="translate(879.8072289156627,0)"><line stroke="currentColor" y2="0"></line><text fill="currentColor" y="16" dy="0.71em">43</text></g></g><rect x="865.1566265060242" y="96.9078014184397" rx="4" ry="4" width="29.301204819277107" height="30.184397163120565" style="fill: rgb(252, 255, 164); stroke-width: 4px; stroke: none; opacity: 0.8;"></rect>
<rect x="865.1566265060242" y="65.13475177304963" rx="4" ry="4" width="29.301204819277107" height="30.184397163120565" style="fill: rgb(248, 133, 15); stroke-width: 4px; stroke: none; opacity: 0.8;"></rect>
<rect x="865.1566265060242" y="33.36170212765957" rx="4" ry="4" width="29.301204819277107" height="30.184397163120565" style="fill: rgb(251, 155, 6); stroke-width: 4px; stroke: none; opacity: 0.8;"></rect>
<rect x="865.1566265060242" y="1.5886524822694952" rx="4" ry="4" width="29.301204819277107" height="30.184397163120565" style="fill: rgb(211, 71, 67); stroke-width: 4px; stroke: none; opacity: 0.8;"></rect>
<rect x="834.3132530120482" y="192.22695035460993" rx="4" ry="4" width="29.301204819277107" height="30.184397163120565" style="fill: rgb(228, 90, 49); stroke-width: 4px; stroke: none; opacity: 0.8;"></rect>
<rect x="834.3132530120482" y="160.45390070921985" rx="4" ry="4" width="29.301204819277107" height="30.184397163120565" style="fill: rgb(130, 32, 108); stroke-width: 4px; stroke: none; opacity: 0.8;"></rect>
<rect x="834.3132530120482" y="128.68085106382978" rx="4" ry="4" width="29.301204819277107" height="30.184397163120565" style="fill: rgb(250, 148, 7); stroke-width: 4px; stroke: none; opacity: 0.8;"></rect>
<rect x="834.3132530120482" y="96.9078014184397" rx="4" ry="4" width="29.301204819277107" height="30.184397163120565" style="fill: rgb(252, 165, 10); stroke-width: 4px; stroke: none; opacity: 0.8;"></rect>
<rect x="834.3132530120482" y="65.13475177304963" rx="4" ry="4" width="29.301204819277107" height="30.184397163120565" style="fill: rgb(248, 135, 14); stroke-width: 4px; stroke: none; opacity: 0.8;"></rect>
<rect x="834.3132530120482" y="33.36170212765957" rx="4" ry="4" width="29.301204819277107" height="30.184397163120565" style="fill: rgb(246, 128, 19); stroke-width: 4px; stroke: none; opacity: 0.8;"></rect>
<rect x="834.3132530120482" y="1.5886524822694952" rx="4" ry="4" width="29.301204819277107" height="30.184397163120565" style="fill: rgb(249, 199, 47); stroke-width: 4px; stroke: none; opacity: 0.8;"></rect>
<rect x="803.4698795180723" y="192.22695035460993" rx="4" ry="4" width="29.301204819277107" height="30.184397163120565" style="fill: rgb(251, 157, 7); stroke-width: 4px; stroke: none; opacity: 0.8;"></rect>
<rect x="803.4698795180723" y="160.45390070921985" rx="4" ry="4" width="29.301204819277107" height="30.184397163120565" style="fill: rgb(252, 165, 10); stroke-width: 4px; stroke: none; opacity: 0.8;"></rect>
<rect x="803.4698795180723" y="128.68085106382978" rx="4" ry="4" width="29.301204819277107" height="30.184397163120565" style="fill: rgb(245, 125, 21); stroke-width: 4px; stroke: none; opacity: 0.8;"></rect>
<rect x="803.4698795180723" y="96.9078014184397" rx="4" ry="4" width="29.301204819277107" height="30.184397163120565" style="fill: rgb(249, 139, 11); stroke-width: 4px; stroke: none; opacity: 0.8;"></rect>
<rect x="803.4698795180723" y="65.13475177304963" rx="4" ry="4" width="29.301204819277107" height="30.184397163120565" style="fill: rgb(247, 132, 16); stroke-width: 4px; stroke: none; opacity: 0.8;"></rect>
<rect x="803.4698795180723" y="33.36170212765957" rx="4" ry="4" width="29.301204819277107" height="30.184397163120565" style="fill: rgb(199, 62, 76); stroke-width: 4px; stroke: none; opacity: 0.8;"></rect>
<rect x="741.7831325301205" y="192.22695035460993" rx="4" ry="4" width="29.301204819277107" height="30.184397163120565" style="fill: rgb(243, 246, 138); stroke-width: 4px; stroke: none; opacity: 0.8;"></rect>
<rect x="803.4698795180723" y="1.5886524822694952" rx="4" ry="4" width="29.301204819277107" height="30.184397163120565" style="fill: rgb(239, 235, 233); stroke-width: 4px; stroke: none; opacity: 0.8;"></rect>
<rect x="772.6265060240964" y="192.22695035460993" rx="4" ry="4" width="29.301204819277107" height="30.184397163120565" style="fill: rgb(239, 235, 233); stroke-width: 4px; stroke: none; opacity: 0.8;"></rect>
<rect x="772.6265060240964" y="160.45390070921985" rx="4" ry="4" width="29.301204819277107" height="30.184397163120565" style="fill: rgb(239, 235, 233); stroke-width: 4px; stroke: none; opacity: 0.8;"></rect>
<rect x="772.6265060240964" y="128.68085106382978" rx="4" ry="4" width="29.301204819277107" height="30.184397163120565" style="fill: rgb(239, 235, 233); stroke-width: 4px; stroke: none; opacity: 0.8;"></rect>
<rect x="772.6265060240964" y="96.9078014184397" rx="4" ry="4" width="29.301204819277107" height="30.184397163120565" style="fill: rgb(239, 235, 233); stroke-width: 4px; stroke: none; opacity: 0.8;"></rect>
<rect x="772.6265060240964" y="65.13475177304963" rx="4" ry="4" width="29.301204819277107" height="30.184397163120565" style="fill: rgb(239, 235, 233); stroke-width: 4px; stroke: none; opacity: 0.8;"></rect>
<rect x="772.6265060240964" y="33.36170212765957" rx="4" ry="4" width="29.301204819277107" height="30.184397163120565" style="fill: rgb(239, 235, 233); stroke-width: 4px; stroke: none; opacity: 0.8;"></rect>
<rect x="772.6265060240964" y="1.5886524822694952" rx="4" ry="4" width="29.301204819277107" height="30.184397163120565" style="fill: rgb(239, 235, 233); stroke-width: 4px; stroke: none; opacity: 0.8;"></rect>
<rect x="741.7831325301205" y="160.45390070921985" rx="4" ry="4" width="29.301204819277107" height="30.184397163120565" style="fill: rgb(243, 245, 134); stroke-width: 4px; stroke: none; opacity: 0.8;"></rect>
<rect x="741.7831325301205" y="128.68085106382978" rx="4" ry="4" width="29.301204819277107" height="30.184397163120565" style="fill: rgb(242, 242, 125); stroke-width: 4px; stroke: none; opacity: 0.8;"></rect>
<rect x="741.7831325301205" y="96.9078014184397" rx="4" ry="4" width="29.301204819277107" height="30.184397163120565" style="fill: rgb(242, 242, 125); stroke-width: 4px; stroke: none; opacity: 0.8;"></rect>
<rect x="741.7831325301205" y="65.13475177304963" rx="4" ry="4" width="29.301204819277107" height="30.184397163120565" style="fill: rgb(251, 153, 6); stroke-width: 4px; stroke: none; opacity: 0.8;"></rect>
<rect x="741.7831325301205" y="33.36170212765957" rx="4" ry="4" width="29.301204819277107" height="30.184397163120565" style="fill: rgb(247, 132, 16); stroke-width: 4px; stroke: none; opacity: 0.8;"></rect>
<rect x="741.7831325301205" y="1.5886524822694952" rx="4" ry="4" width="29.301204819277107" height="30.184397163120565" style="fill: rgb(242, 116, 28); stroke-width: 4px; stroke: none; opacity: 0.8;"></rect>
<rect x="710.9397590361446" y="192.22695035460993" rx="4" ry="4" width="29.301204819277107" height="30.184397163120565" style="fill: rgb(243, 120, 25); stroke-width: 4px; stroke: none; opacity: 0.8;"></rect>
<rect x="710.9397590361446" y="160.45390070921985" rx="4" ry="4" width="29.301204819277107" height="30.184397163120565" style="fill: rgb(252, 170, 15); stroke-width: 4px; stroke: none; opacity: 0.8;"></rect>
<rect x="710.9397590361446" y="128.68085106382978" rx="4" ry="4" width="29.301204819277107" height="30.184397163120565" style="fill: rgb(250, 144, 8); stroke-width: 4px; stroke: none; opacity: 0.8;"></rect>
<rect x="710.9397590361446" y="96.9078014184397" rx="4" ry="4" width="29.301204819277107" height="30.184397163120565" style="fill: rgb(199, 62, 76); stroke-width: 4px; stroke: none; opacity: 0.8;"></rect>
<rect x="710.9397590361446" y="65.13475177304963" rx="4" ry="4" width="29.301204819277107" height="30.184397163120565" style="fill: rgb(242, 116, 28); stroke-width: 4px; stroke: none; opacity: 0.8;"></rect>
<rect x="710.9397590361446" y="33.36170212765957" rx="4" ry="4" width="29.301204819277107" height="30.184397163120565" style="fill: rgb(234, 99, 42); stroke-width: 4px; stroke: none; opacity: 0.8;"></rect>
<rect x="710.9397590361446" y="1.5886524822694952" rx="4" ry="4" width="29.301204819277107" height="30.184397163120565" style="fill: rgb(236, 103, 38); stroke-width: 4px; stroke: none; opacity: 0.8;"></rect>
<rect x="680.0963855421687" y="192.22695035460993" rx="4" ry="4" width="29.301204819277107" height="30.184397163120565" style="fill: rgb(249, 139, 11); stroke-width: 4px; stroke: none; opacity: 0.8;"></rect>
<rect x="680.0963855421687" y="160.45390070921985" rx="4" ry="4" width="29.301204819277107" height="30.184397163120565" style="fill: rgb(206, 67, 71); stroke-width: 4px; stroke: none; opacity: 0.8;"></rect>
<rect x="680.0963855421687" y="128.68085106382978" rx="4" ry="4" width="29.301204819277107" height="30.184397163120565" style="fill: rgb(239, 108, 35); stroke-width: 4px; stroke: none; opacity: 0.8;"></rect>
<rect x="680.0963855421687" y="96.9078014184397" rx="4" ry="4" width="29.301204819277107" height="30.184397163120565" style="fill: rgb(235, 102, 40); stroke-width: 4px; stroke: none; opacity: 0.8;"></rect>
<rect x="680.0963855421687" y="65.13475177304963" rx="4" ry="4" width="29.301204819277107" height="30.184397163120565" style="fill: rgb(230, 93, 47); stroke-width: 4px; stroke: none; opacity: 0.8;"></rect>
<rect x="680.0963855421687" y="33.36170212765957" rx="4" ry="4" width="29.301204819277107" height="30.184397163120565" style="fill: rgb(227, 89, 51); stroke-width: 4px; stroke: none; opacity: 0.8;"></rect>
<rect x="680.0963855421687" y="1.5886524822694952" rx="4" ry="4" width="29.301204819277107" height="30.184397163120565" style="fill: rgb(235, 102, 40); stroke-width: 4px; stroke: none; opacity: 0.8;"></rect>
<rect x="649.2530120481928" y="192.22695035460993" rx="4" ry="4" width="29.301204819277107" height="30.184397163120565" style="fill: rgb(247, 130, 18); stroke-width: 4px; stroke: none; opacity: 0.8;"></rect>
<rect x="649.2530120481928" y="160.45390070921985" rx="4" ry="4" width="29.301204819277107" height="30.184397163120565" style="fill: rgb(249, 139, 11); stroke-width: 4px; stroke: none; opacity: 0.8;"></rect>
<rect x="649.2530120481928" y="128.68085106382978" rx="4" ry="4" width="29.301204819277107" height="30.184397163120565" style="fill: rgb(235, 102, 40); stroke-width: 4px; stroke: none; opacity: 0.8;"></rect>
<rect x="649.2530120481928" y="96.9078014184397" rx="4" ry="4" width="29.301204819277107" height="30.184397163120565" style="fill: rgb(223, 83, 55); stroke-width: 4px; stroke: none; opacity: 0.8;"></rect>
<rect x="649.2530120481928" y="65.13475177304963" rx="4" ry="4" width="29.301204819277107" height="30.184397163120565" style="fill: rgb(241, 115, 29); stroke-width: 4px; stroke: none; opacity: 0.8;"></rect>
<rect x="649.2530120481928" y="33.36170212765957" rx="4" ry="4" width="29.301204819277107" height="30.184397163120565" style="fill: rgb(244, 121, 24); stroke-width: 4px; stroke: none; opacity: 0.8;"></rect>
<rect x="649.2530120481928" y="1.5886524822694952" rx="4" ry="4" width="29.301204819277107" height="30.184397163120565" style="fill: rgb(235, 100, 41); stroke-width: 4px; stroke: none; opacity: 0.8;"></rect>
<rect x="618.4096385542168" y="192.22695035460993" rx="4" ry="4" width="29.301204819277107" height="30.184397163120565" style="fill: rgb(249, 140, 10); stroke-width: 4px; stroke: none; opacity: 0.8;"></rect>
<rect x="618.4096385542168" y="160.45390070921985" rx="4" ry="4" width="29.301204819277107" height="30.184397163120565" style="fill: rgb(250, 194, 40); stroke-width: 4px; stroke: none; opacity: 0.8;"></rect>
<rect x="618.4096385542168" y="128.68085106382978" rx="4" ry="4" width="29.301204819277107" height="30.184397163120565" style="fill: rgb(229, 92, 48); stroke-width: 4px; stroke: none; opacity: 0.8;"></rect>
<rect x="618.4096385542168" y="96.9078014184397" rx="4" ry="4" width="29.301204819277107" height="30.184397163120565" style="fill: rgb(247, 130, 18); stroke-width: 4px; stroke: none; opacity: 0.8;"></rect>
<rect x="618.4096385542168" y="65.13475177304963" rx="4" ry="4" width="29.301204819277107" height="30.184397163120565" style="fill: rgb(234, 99, 42); stroke-width: 4px; stroke: none; opacity: 0.8;"></rect>
<rect x="618.4096385542168" y="33.36170212765957" rx="4" ry="4" width="29.301204819277107" height="30.184397163120565" style="fill: rgb(241, 113, 31); stroke-width: 4px; stroke: none; opacity: 0.8;"></rect>
<rect x="618.4096385542168" y="1.5886524822694952" rx="4" ry="4" width="29.301204819277107" height="30.184397163120565" style="fill: rgb(210, 70, 68); stroke-width: 4px; stroke: none; opacity: 0.8;"></rect>
<rect x="587.566265060241" y="192.22695035460993" rx="4" ry="4" width="29.301204819277107" height="30.184397163120565" style="fill: rgb(247, 130, 18); stroke-width: 4px; stroke: none; opacity: 0.8;"></rect>
<rect x="587.566265060241" y="160.45390070921985" rx="4" ry="4" width="29.301204819277107" height="30.184397163120565" style="fill: rgb(250, 144, 8); stroke-width: 4px; stroke: none; opacity: 0.8;"></rect>
<rect x="587.566265060241" y="128.68085106382978" rx="4" ry="4" width="29.301204819277107" height="30.184397163120565" style="fill: rgb(57, 9, 99); stroke-width: 4px; stroke: none; opacity: 0.8;"></rect>
<rect x="587.566265060241" y="96.9078014184397" rx="4" ry="4" width="29.301204819277107" height="30.184397163120565" style="fill: rgb(250, 144, 8); stroke-width: 4px; stroke: none; opacity: 0.8;"></rect>
<rect x="587.566265060241" y="65.13475177304963" rx="4" ry="4" width="29.301204819277107" height="30.184397163120565" style="fill: rgb(248, 137, 12); stroke-width: 4px; stroke: none; opacity: 0.8;"></rect>
<rect x="587.566265060241" y="33.36170212765957" rx="4" ry="4" width="29.301204819277107" height="30.184397163120565" style="fill: rgb(206, 67, 71); stroke-width: 4px; stroke: none; opacity: 0.8;"></rect>
<rect x="587.566265060241" y="1.5886524822694952" rx="4" ry="4" width="29.301204819277107" height="30.184397163120565" style="fill: rgb(250, 146, 7); stroke-width: 4px; stroke: none; opacity: 0.8;"></rect>
<rect x="556.722891566265" y="192.22695035460993" rx="4" ry="4" width="29.301204819277107" height="30.184397163120565" style="fill: rgb(251, 153, 6); stroke-width: 4px; stroke: none; opacity: 0.8;"></rect>
<rect x="556.722891566265" y="160.45390070921985" rx="4" ry="4" width="29.301204819277107" height="30.184397163120565" style="fill: rgb(239, 110, 33); stroke-width: 4px; stroke: none; opacity: 0.8;"></rect>
<rect x="556.722891566265" y="128.68085106382978" rx="4" ry="4" width="29.301204819277107" height="30.184397163120565" style="fill: rgb(249, 139, 11); stroke-width: 4px; stroke: none; opacity: 0.8;"></rect>
<rect x="556.722891566265" y="96.9078014184397" rx="4" ry="4" width="29.301204819277107" height="30.184397163120565" style="fill: rgb(252, 165, 10); stroke-width: 4px; stroke: none; opacity: 0.8;"></rect>
<rect x="556.722891566265" y="65.13475177304963" rx="4" ry="4" width="29.301204819277107" height="30.184397163120565" style="fill: rgb(247, 132, 16); stroke-width: 4px; stroke: none; opacity: 0.8;"></rect>
<rect x="556.722891566265" y="33.36170212765957" rx="4" ry="4" width="29.301204819277107" height="30.184397163120565" style="fill: rgb(243, 118, 27); stroke-width: 4px; stroke: none; opacity: 0.8;"></rect>
<rect x="556.722891566265" y="1.5886524822694952" rx="4" ry="4" width="29.301204819277107" height="30.184397163120565" style="fill: rgb(247, 132, 16); stroke-width: 4px; stroke: none; opacity: 0.8;"></rect>
<rect x="525.8795180722892" y="192.22695035460993" rx="4" ry="4" width="29.301204819277107" height="30.184397163120565" style="fill: rgb(232, 96, 45); stroke-width: 4px; stroke: none; opacity: 0.8;"></rect>
<rect x="525.8795180722892" y="160.45390070921985" rx="4" ry="4" width="29.301204819277107" height="30.184397163120565" style="fill: rgb(247, 132, 16); stroke-width: 4px; stroke: none; opacity: 0.8;"></rect>
<rect x="525.8795180722892" y="128.68085106382978" rx="4" ry="4" width="29.301204819277107" height="30.184397163120565" style="fill: rgb(250, 144, 8); stroke-width: 4px; stroke: none; opacity: 0.8;"></rect>
<rect x="525.8795180722892" y="96.9078014184397" rx="4" ry="4" width="29.301204819277107" height="30.184397163120565" style="fill: rgb(248, 137, 12); stroke-width: 4px; stroke: none; opacity: 0.8;"></rect>
<rect x="525.8795180722892" y="65.13475177304963" rx="4" ry="4" width="29.301204819277107" height="30.184397163120565" style="fill: rgb(248, 137, 12); stroke-width: 4px; stroke: none; opacity: 0.8;"></rect>
<rect x="525.8795180722892" y="33.36170212765957" rx="4" ry="4" width="29.301204819277107" height="30.184397163120565" style="fill: rgb(223, 83, 55); stroke-width: 4px; stroke: none; opacity: 0.8;"></rect>
<rect x="525.8795180722892" y="1.5886524822694952" rx="4" ry="4" width="29.301204819277107" height="30.184397163120565" style="fill: rgb(136, 34, 106); stroke-width: 4px; stroke: none; opacity: 0.8;"></rect>
<rect x="495.03614457831327" y="192.22695035460993" rx="4" ry="4" width="29.301204819277107" height="30.184397163120565" style="fill: rgb(173, 48, 93); stroke-width: 4px; stroke: none; opacity: 0.8;"></rect>
<rect x="495.03614457831327" y="160.45390070921985" rx="4" ry="4" width="29.301204819277107" height="30.184397163120565" style="fill: rgb(196, 60, 78); stroke-width: 4px; stroke: none; opacity: 0.8;"></rect>
<rect x="495.03614457831327" y="128.68085106382978" rx="4" ry="4" width="29.301204819277107" height="30.184397163120565" style="fill: rgb(250, 144, 8); stroke-width: 4px; stroke: none; opacity: 0.8;"></rect>
<rect x="495.03614457831327" y="96.9078014184397" rx="4" ry="4" width="29.301204819277107" height="30.184397163120565" style="fill: rgb(222, 82, 56); stroke-width: 4px; stroke: none; opacity: 0.8;"></rect>
<rect x="495.03614457831327" y="65.13475177304963" rx="4" ry="4" width="29.301204819277107" height="30.184397163120565" style="fill: rgb(211, 71, 67); stroke-width: 4px; stroke: none; opacity: 0.8;"></rect>
<rect x="495.03614457831327" y="33.36170212765957" rx="4" ry="4" width="29.301204819277107" height="30.184397163120565" style="fill: rgb(235, 100, 41); stroke-width: 4px; stroke: none; opacity: 0.8;"></rect>
<rect x="495.03614457831327" y="1.5886524822694952" rx="4" ry="4" width="29.301204819277107" height="30.184397163120565" style="fill: rgb(159, 42, 99); stroke-width: 4px; stroke: none; opacity: 0.8;"></rect>
<rect x="464.1927710843374" y="192.22695035460993" rx="4" ry="4" width="29.301204819277107" height="30.184397163120565" style="fill: rgb(249, 201, 50); stroke-width: 4px; stroke: none; opacity: 0.8;"></rect>
<rect x="464.1927710843374" y="160.45390070921985" rx="4" ry="4" width="29.301204819277107" height="30.184397163120565" style="fill: rgb(231, 94, 46); stroke-width: 4px; stroke: none; opacity: 0.8;"></rect>
<rect x="464.1927710843374" y="128.68085106382978" rx="4" ry="4" width="29.301204819277107" height="30.184397163120565" style="fill: rgb(252, 165, 10); stroke-width: 4px; stroke: none; opacity: 0.8;"></rect>
<rect x="464.1927710843374" y="96.9078014184397" rx="4" ry="4" width="29.301204819277107" height="30.184397163120565" style="fill: rgb(243, 118, 27); stroke-width: 4px; stroke: none; opacity: 0.8;"></rect>
<rect x="464.1927710843374" y="65.13475177304963" rx="4" ry="4" width="29.301204819277107" height="30.184397163120565" style="fill: rgb(221, 81, 58); stroke-width: 4px; stroke: none; opacity: 0.8;"></rect>
<rect x="464.1927710843374" y="33.36170212765957" rx="4" ry="4" width="29.301204819277107" height="30.184397163120565" style="fill: rgb(217, 77, 61); stroke-width: 4px; stroke: none; opacity: 0.8;"></rect>
<rect x="464.1927710843374" y="1.5886524822694952" rx="4" ry="4" width="29.301204819277107" height="30.184397163120565" style="fill: rgb(223, 83, 55); stroke-width: 4px; stroke: none; opacity: 0.8;"></rect>
<rect x="433.3493975903615" y="192.22695035460993" rx="4" ry="4" width="29.301204819277107" height="30.184397163120565" style="fill: rgb(249, 142, 9); stroke-width: 4px; stroke: none; opacity: 0.8;"></rect>
<rect x="433.3493975903615" y="160.45390070921985" rx="4" ry="4" width="29.301204819277107" height="30.184397163120565" style="fill: rgb(238, 106, 36); stroke-width: 4px; stroke: none; opacity: 0.8;"></rect>
<rect x="433.3493975903615" y="128.68085106382978" rx="4" ry="4" width="29.301204819277107" height="30.184397163120565" style="fill: rgb(237, 105, 37); stroke-width: 4px; stroke: none; opacity: 0.8;"></rect>
<rect x="433.3493975903615" y="96.9078014184397" rx="4" ry="4" width="29.301204819277107" height="30.184397163120565" style="fill: rgb(237, 105, 37); stroke-width: 4px; stroke: none; opacity: 0.8;"></rect>
<rect x="433.3493975903615" y="65.13475177304963" rx="4" ry="4" width="29.301204819277107" height="30.184397163120565" style="fill: rgb(236, 103, 38); stroke-width: 4px; stroke: none; opacity: 0.8;"></rect>
<rect x="433.3493975903615" y="33.36170212765957" rx="4" ry="4" width="29.301204819277107" height="30.184397163120565" style="fill: rgb(217, 77, 61); stroke-width: 4px; stroke: none; opacity: 0.8;"></rect>
<rect x="433.3493975903615" y="1.5886524822694952" rx="4" ry="4" width="29.301204819277107" height="30.184397163120565" style="fill: rgb(221, 81, 58); stroke-width: 4px; stroke: none; opacity: 0.8;"></rect>
<rect x="402.50602409638554" y="192.22695035460993" rx="4" ry="4" width="29.301204819277107" height="30.184397163120565" style="fill: rgb(246, 126, 20); stroke-width: 4px; stroke: none; opacity: 0.8;"></rect>
<rect x="402.50602409638554" y="160.45390070921985" rx="4" ry="4" width="29.301204819277107" height="30.184397163120565" style="fill: rgb(245, 123, 23); stroke-width: 4px; stroke: none; opacity: 0.8;"></rect>
<rect x="402.50602409638554" y="128.68085106382978" rx="4" ry="4" width="29.301204819277107" height="30.184397163120565" style="fill: rgb(235, 102, 40); stroke-width: 4px; stroke: none; opacity: 0.8;"></rect>
<rect x="402.50602409638554" y="96.9078014184397" rx="4" ry="4" width="29.301204819277107" height="30.184397163120565" style="fill: rgb(219, 80, 59); stroke-width: 4px; stroke: none; opacity: 0.8;"></rect>
<rect x="402.50602409638554" y="65.13475177304963" rx="4" ry="4" width="29.301204819277107" height="30.184397163120565" style="fill: rgb(207, 68, 70); stroke-width: 4px; stroke: none; opacity: 0.8;"></rect>
<rect x="402.50602409638554" y="33.36170212765957" rx="4" ry="4" width="29.301204819277107" height="30.184397163120565" style="fill: rgb(225, 86, 53); stroke-width: 4px; stroke: none; opacity: 0.8;"></rect>
<rect x="402.50602409638554" y="1.5886524822694952" rx="4" ry="4" width="29.301204819277107" height="30.184397163120565" style="fill: rgb(250, 148, 7); stroke-width: 4px; stroke: none; opacity: 0.8;"></rect>
<rect x="371.66265060240966" y="192.22695035460993" rx="4" ry="4" width="29.301204819277107" height="30.184397163120565" style="fill: rgb(216, 76, 62); stroke-width: 4px; stroke: none; opacity: 0.8;"></rect>
<rect x="371.66265060240966" y="160.45390070921985" rx="4" ry="4" width="29.301204819277107" height="30.184397163120565" style="fill: rgb(203, 65, 73); stroke-width: 4px; stroke: none; opacity: 0.8;"></rect>
<rect x="371.66265060240966" y="128.68085106382978" rx="4" ry="4" width="29.301204819277107" height="30.184397163120565" style="fill: rgb(252, 170, 15); stroke-width: 4px; stroke: none; opacity: 0.8;"></rect>
<rect x="371.66265060240966" y="96.9078014184397" rx="4" ry="4" width="29.301204819277107" height="30.184397163120565" style="fill: rgb(206, 67, 71); stroke-width: 4px; stroke: none; opacity: 0.8;"></rect>
<rect x="371.66265060240966" y="65.13475177304963" rx="4" ry="4" width="29.301204819277107" height="30.184397163120565" style="fill: rgb(233, 97, 43); stroke-width: 4px; stroke: none; opacity: 0.8;"></rect>
<rect x="371.66265060240966" y="33.36170212765957" rx="4" ry="4" width="29.301204819277107" height="30.184397163120565" style="fill: rgb(218, 78, 60); stroke-width: 4px; stroke: none; opacity: 0.8;"></rect>
<rect x="371.66265060240966" y="1.5886524822694952" rx="4" ry="4" width="29.301204819277107" height="30.184397163120565" style="fill: rgb(203, 65, 73); stroke-width: 4px; stroke: none; opacity: 0.8;"></rect>
<rect x="340.81927710843377" y="192.22695035460993" rx="4" ry="4" width="29.301204819277107" height="30.184397163120565" style="fill: rgb(235, 100, 41); stroke-width: 4px; stroke: none; opacity: 0.8;"></rect>
<rect x="340.81927710843377" y="160.45390070921985" rx="4" ry="4" width="29.301204819277107" height="30.184397163120565" style="fill: rgb(106, 23, 110); stroke-width: 4px; stroke: none; opacity: 0.8;"></rect>
<rect x="340.81927710843377" y="128.68085106382978" rx="4" ry="4" width="29.301204819277107" height="30.184397163120565" style="fill: rgb(203, 65, 73); stroke-width: 4px; stroke: none; opacity: 0.8;"></rect>
<rect x="340.81927710843377" y="96.9078014184397" rx="4" ry="4" width="29.301204819277107" height="30.184397163120565" style="fill: rgb(191, 57, 82); stroke-width: 4px; stroke: none; opacity: 0.8;"></rect>
<rect x="340.81927710843377" y="65.13475177304963" rx="4" ry="4" width="29.301204819277107" height="30.184397163120565" style="fill: rgb(199, 62, 76); stroke-width: 4px; stroke: none; opacity: 0.8;"></rect>
<rect x="340.81927710843377" y="33.36170212765957" rx="4" ry="4" width="29.301204819277107" height="30.184397163120565" style="fill: rgb(246, 126, 20); stroke-width: 4px; stroke: none; opacity: 0.8;"></rect>
<rect x="340.81927710843377" y="1.5886524822694952" rx="4" ry="4" width="29.301204819277107" height="30.184397163120565" style="fill: rgb(218, 78, 60); stroke-width: 4px; stroke: none; opacity: 0.8;"></rect>
<rect x="309.9759036144578" y="192.22695035460993" rx="4" ry="4" width="29.301204819277107" height="30.184397163120565" style="fill: rgb(252, 161, 8); stroke-width: 4px; stroke: none; opacity: 0.8;"></rect>
<rect x="309.9759036144578" y="160.45390070921985" rx="4" ry="4" width="29.301204819277107" height="30.184397163120565" style="fill: rgb(243, 118, 27); stroke-width: 4px; stroke: none; opacity: 0.8;"></rect>
<rect x="309.9759036144578" y="128.68085106382978" rx="4" ry="4" width="29.301204819277107" height="30.184397163120565" style="fill: rgb(248, 137, 12); stroke-width: 4px; stroke: none; opacity: 0.8;"></rect>
<rect x="309.9759036144578" y="96.9078014184397" rx="4" ry="4" width="29.301204819277107" height="30.184397163120565" style="fill: rgb(132, 32, 107); stroke-width: 4px; stroke: none; opacity: 0.8;"></rect>
<rect x="309.9759036144578" y="65.13475177304963" rx="4" ry="4" width="29.301204819277107" height="30.184397163120565" style="fill: rgb(227, 89, 51); stroke-width: 4px; stroke: none; opacity: 0.8;"></rect>
<rect x="309.9759036144578" y="33.36170212765957" rx="4" ry="4" width="29.301204819277107" height="30.184397163120565" style="fill: rgb(198, 61, 77); stroke-width: 4px; stroke: none; opacity: 0.8;"></rect>
<rect x="309.9759036144578" y="1.5886524822694952" rx="4" ry="4" width="29.301204819277107" height="30.184397163120565" style="fill: rgb(228, 90, 49); stroke-width: 4px; stroke: none; opacity: 0.8;"></rect>
<rect x="279.13253012048193" y="192.22695035460993" rx="4" ry="4" width="29.301204819277107" height="30.184397163120565" style="fill: rgb(242, 116, 28); stroke-width: 4px; stroke: none; opacity: 0.8;"></rect>
<rect x="279.13253012048193" y="160.45390070921985" rx="4" ry="4" width="29.301204819277107" height="30.184397163120565" style="fill: rgb(251, 153, 6); stroke-width: 4px; stroke: none; opacity: 0.8;"></rect>
<rect x="279.13253012048193" y="128.68085106382978" rx="4" ry="4" width="29.301204819277107" height="30.184397163120565" style="fill: rgb(231, 94, 46); stroke-width: 4px; stroke: none; opacity: 0.8;"></rect>
<rect x="279.13253012048193" y="96.9078014184397" rx="4" ry="4" width="29.301204819277107" height="30.184397163120565" style="fill: rgb(231, 94, 46); stroke-width: 4px; stroke: none; opacity: 0.8;"></rect>
<rect x="279.13253012048193" y="65.13475177304963" rx="4" ry="4" width="29.301204819277107" height="30.184397163120565" style="fill: rgb(226, 87, 52); stroke-width: 4px; stroke: none; opacity: 0.8;"></rect>
<rect x="279.13253012048193" y="33.36170212765957" rx="4" ry="4" width="29.301204819277107" height="30.184397163120565" style="fill: rgb(206, 67, 71); stroke-width: 4px; stroke: none; opacity: 0.8;"></rect>
<rect x="279.13253012048193" y="1.5886524822694952" rx="4" ry="4" width="29.301204819277107" height="30.184397163120565" style="fill: rgb(233, 97, 43); stroke-width: 4px; stroke: none; opacity: 0.8;"></rect>
<rect x="248.28915662650604" y="192.22695035460993" rx="4" ry="4" width="29.301204819277107" height="30.184397163120565" style="fill: rgb(210, 70, 68); stroke-width: 4px; stroke: none; opacity: 0.8;"></rect>
<rect x="248.28915662650604" y="160.45390070921985" rx="4" ry="4" width="29.301204819277107" height="30.184397163120565" style="fill: rgb(245, 125, 21); stroke-width: 4px; stroke: none; opacity: 0.8;"></rect>
<rect x="248.28915662650604" y="128.68085106382978" rx="4" ry="4" width="29.301204819277107" height="30.184397163120565" style="fill: rgb(221, 81, 58); stroke-width: 4px; stroke: none; opacity: 0.8;"></rect>
<rect x="248.28915662650604" y="96.9078014184397" rx="4" ry="4" width="29.301204819277107" height="30.184397163120565" style="fill: rgb(226, 87, 52); stroke-width: 4px; stroke: none; opacity: 0.8;"></rect>
<rect x="248.28915662650604" y="65.13475177304963" rx="4" ry="4" width="29.301204819277107" height="30.184397163120565" style="fill: rgb(193, 58, 80); stroke-width: 4px; stroke: none; opacity: 0.8;"></rect>
<rect x="248.28915662650604" y="33.36170212765957" rx="4" ry="4" width="29.301204819277107" height="30.184397163120565" style="fill: rgb(180, 51, 89); stroke-width: 4px; stroke: none; opacity: 0.8;"></rect>
<rect x="248.28915662650604" y="1.5886524822694952" rx="4" ry="4" width="29.301204819277107" height="30.184397163120565" style="fill: rgb(252, 165, 10); stroke-width: 4px; stroke: none; opacity: 0.8;"></rect>
<rect x="217.44578313253015" y="192.22695035460993" rx="4" ry="4" width="29.301204819277107" height="30.184397163120565" style="fill: rgb(251, 153, 6); stroke-width: 4px; stroke: none; opacity: 0.8;"></rect>
<rect x="217.44578313253015" y="160.45390070921985" rx="4" ry="4" width="29.301204819277107" height="30.184397163120565" style="fill: rgb(236, 103, 38); stroke-width: 4px; stroke: none; opacity: 0.8;"></rect>
<rect x="217.44578313253015" y="128.68085106382978" rx="4" ry="4" width="29.301204819277107" height="30.184397163120565" style="fill: rgb(235, 100, 41); stroke-width: 4px; stroke: none; opacity: 0.8;"></rect>
<rect x="217.44578313253015" y="96.9078014184397" rx="4" ry="4" width="29.301204819277107" height="30.184397163120565" style="fill: rgb(248, 135, 14); stroke-width: 4px; stroke: none; opacity: 0.8;"></rect>
<rect x="217.44578313253015" y="65.13475177304963" rx="4" ry="4" width="29.301204819277107" height="30.184397163120565" style="fill: rgb(222, 82, 56); stroke-width: 4px; stroke: none; opacity: 0.8;"></rect>
<rect x="217.44578313253015" y="33.36170212765957" rx="4" ry="4" width="29.301204819277107" height="30.184397163120565" style="fill: rgb(232, 96, 45); stroke-width: 4px; stroke: none; opacity: 0.8;"></rect>
<rect x="217.44578313253015" y="1.5886524822694952" rx="4" ry="4" width="29.301204819277107" height="30.184397163120565" style="fill: rgb(234, 99, 42); stroke-width: 4px; stroke: none; opacity: 0.8;"></rect>
<rect x="186.60240963855424" y="192.22695035460993" rx="4" ry="4" width="29.301204819277107" height="30.184397163120565" style="fill: rgb(248, 135, 14); stroke-width: 4px; stroke: none; opacity: 0.8;"></rect>
<rect x="186.60240963855424" y="160.45390070921985" rx="4" ry="4" width="29.301204819277107" height="30.184397163120565" style="fill: rgb(249, 139, 11); stroke-width: 4px; stroke: none; opacity: 0.8;"></rect>
<rect x="186.60240963855424" y="128.68085106382978" rx="4" ry="4" width="29.301204819277107" height="30.184397163120565" style="fill: rgb(230, 93, 47); stroke-width: 4px; stroke: none; opacity: 0.8;"></rect>
<rect x="186.60240963855424" y="96.9078014184397" rx="4" ry="4" width="29.301204819277107" height="30.184397163120565" style="fill: rgb(235, 102, 40); stroke-width: 4px; stroke: none; opacity: 0.8;"></rect>
<rect x="186.60240963855424" y="65.13475177304963" rx="4" ry="4" width="29.301204819277107" height="30.184397163120565" style="fill: rgb(245, 125, 21); stroke-width: 4px; stroke: none; opacity: 0.8;"></rect>
<rect x="186.60240963855424" y="33.36170212765957" rx="4" ry="4" width="29.301204819277107" height="30.184397163120565" style="fill: rgb(243, 229, 93); stroke-width: 4px; stroke: none; opacity: 0.8;"></rect>
<rect x="186.60240963855424" y="1.5886524822694952" rx="4" ry="4" width="29.301204819277107" height="30.184397163120565" style="fill: rgb(231, 94, 46); stroke-width: 4px; stroke: none; opacity: 0.8;"></rect>
<rect x="155.75903614457832" y="192.22695035460993" rx="4" ry="4" width="29.301204819277107" height="30.184397163120565" style="fill: rgb(144, 37, 104); stroke-width: 4px; stroke: none; opacity: 0.8;"></rect>
<rect x="155.75903614457832" y="160.45390070921985" rx="4" ry="4" width="29.301204819277107" height="30.184397163120565" style="fill: rgb(82, 14, 109); stroke-width: 4px; stroke: none; opacity: 0.8;"></rect>
<rect x="155.75903614457832" y="128.68085106382978" rx="4" ry="4" width="29.301204819277107" height="30.184397163120565" style="fill: rgb(185, 53, 86); stroke-width: 4px; stroke: none; opacity: 0.8;"></rect>
<rect x="155.75903614457832" y="96.9078014184397" rx="4" ry="4" width="29.301204819277107" height="30.184397163120565" style="fill: rgb(154, 40, 101); stroke-width: 4px; stroke: none; opacity: 0.8;"></rect>
<rect x="155.75903614457832" y="65.13475177304963" rx="4" ry="4" width="29.301204819277107" height="30.184397163120565" style="fill: rgb(17, 10, 48); stroke-width: 4px; stroke: none; opacity: 0.8;"></rect>
<rect x="155.75903614457832" y="33.36170212765957" rx="4" ry="4" width="29.301204819277107" height="30.184397163120565" style="fill: rgb(54, 9, 97); stroke-width: 4px; stroke: none; opacity: 0.8;"></rect>
<rect x="155.75903614457832" y="1.5886524822694952" rx="4" ry="4" width="29.301204819277107" height="30.184397163120565" style="fill: rgb(232, 96, 45); stroke-width: 4px; stroke: none; opacity: 0.8;"></rect>
<rect x="124.91566265060243" y="192.22695035460993" rx="4" ry="4" width="29.301204819277107" height="30.184397163120565" style="fill: rgb(243, 118, 27); stroke-width: 4px; stroke: none; opacity: 0.8;"></rect>
<rect x="124.91566265060243" y="160.45390070921985" rx="4" ry="4" width="29.301204819277107" height="30.184397163120565" style="fill: rgb(248, 133, 15); stroke-width: 4px; stroke: none; opacity: 0.8;"></rect>
<rect x="124.91566265060243" y="128.68085106382978" rx="4" ry="4" width="29.301204819277107" height="30.184397163120565" style="fill: rgb(227, 89, 51); stroke-width: 4px; stroke: none; opacity: 0.8;"></rect>
<rect x="124.91566265060243" y="96.9078014184397" rx="4" ry="4" width="29.301204819277107" height="30.184397163120565" style="fill: rgb(230, 93, 47); stroke-width: 4px; stroke: none; opacity: 0.8;"></rect>
<rect x="124.91566265060243" y="65.13475177304963" rx="4" ry="4" width="29.301204819277107" height="30.184397163120565" style="fill: rgb(239, 110, 33); stroke-width: 4px; stroke: none; opacity: 0.8;"></rect>
<rect x="124.91566265060243" y="33.36170212765957" rx="4" ry="4" width="29.301204819277107" height="30.184397163120565" style="fill: rgb(243, 120, 25); stroke-width: 4px; stroke: none; opacity: 0.8;"></rect>
<rect x="124.91566265060243" y="1.5886524822694952" rx="4" ry="4" width="29.301204819277107" height="30.184397163120565" style="fill: rgb(243, 120, 25); stroke-width: 4px; stroke: none; opacity: 0.8;"></rect>
<rect x="94.07228915662652" y="192.22695035460993" rx="4" ry="4" width="29.301204819277107" height="30.184397163120565" style="fill: rgb(239, 110, 33); stroke-width: 4px; stroke: none; opacity: 0.8;"></rect>
<rect x="94.07228915662652" y="160.45390070921985" rx="4" ry="4" width="29.301204819277107" height="30.184397163120565" style="fill: rgb(251, 155, 6); stroke-width: 4px; stroke: none; opacity: 0.8;"></rect>
<rect x="94.07228915662652" y="128.68085106382978" rx="4" ry="4" width="29.301204819277107" height="30.184397163120565" style="fill: rgb(252, 180, 24); stroke-width: 4px; stroke: none; opacity: 0.8;"></rect>
<rect x="94.07228915662652" y="96.9078014184397" rx="4" ry="4" width="29.301204819277107" height="30.184397163120565" style="fill: rgb(249, 142, 9); stroke-width: 4px; stroke: none; opacity: 0.8;"></rect>
<rect x="94.07228915662652" y="65.13475177304963" rx="4" ry="4" width="29.301204819277107" height="30.184397163120565" style="fill: rgb(252, 176, 20); stroke-width: 4px; stroke: none; opacity: 0.8;"></rect>
<rect x="94.07228915662652" y="33.36170212765957" rx="4" ry="4" width="29.301204819277107" height="30.184397163120565" style="fill: rgb(237, 105, 37); stroke-width: 4px; stroke: none; opacity: 0.8;"></rect>
<rect x="94.07228915662652" y="1.5886524822694952" rx="4" ry="4" width="29.301204819277107" height="30.184397163120565" style="fill: rgb(243, 120, 25); stroke-width: 4px; stroke: none; opacity: 0.8;"></rect>
<rect x="63.22891566265062" y="192.22695035460993" rx="4" ry="4" width="29.301204819277107" height="30.184397163120565" style="fill: rgb(249, 139, 11); stroke-width: 4px; stroke: none; opacity: 0.8;"></rect>
<rect x="63.22891566265062" y="160.45390070921985" rx="4" ry="4" width="29.301204819277107" height="30.184397163120565" style="fill: rgb(235, 100, 41); stroke-width: 4px; stroke: none; opacity: 0.8;"></rect>
<rect x="63.22891566265062" y="128.68085106382978" rx="4" ry="4" width="29.301204819277107" height="30.184397163120565" style="fill: rgb(229, 92, 48); stroke-width: 4px; stroke: none; opacity: 0.8;"></rect>
<rect x="63.22891566265062" y="96.9078014184397" rx="4" ry="4" width="29.301204819277107" height="30.184397163120565" style="fill: rgb(244, 121, 24); stroke-width: 4px; stroke: none; opacity: 0.8;"></rect>
<rect x="63.22891566265062" y="65.13475177304963" rx="4" ry="4" width="29.301204819277107" height="30.184397163120565" style="fill: rgb(245, 125, 21); stroke-width: 4px; stroke: none; opacity: 0.8;"></rect>
<rect x="63.22891566265062" y="33.36170212765957" rx="4" ry="4" width="29.301204819277107" height="30.184397163120565" style="fill: rgb(243, 118, 27); stroke-width: 4px; stroke: none; opacity: 0.8;"></rect>
<rect x="63.22891566265062" y="1.5886524822694952" rx="4" ry="4" width="29.301204819277107" height="30.184397163120565" style="fill: rgb(249, 142, 9); stroke-width: 4px; stroke: none; opacity: 0.8;"></rect>
<rect x="32.38554216867472" y="192.22695035460993" rx="4" ry="4" width="29.301204819277107" height="30.184397163120565" style="fill: rgb(252, 166, 12); stroke-width: 4px; stroke: none; opacity: 0.8;"></rect>
<rect x="32.38554216867472" y="160.45390070921985" rx="4" ry="4" width="29.301204819277107" height="30.184397163120565" style="fill: rgb(252, 172, 17); stroke-width: 4px; stroke: none; opacity: 0.8;"></rect>
<rect x="32.38554216867472" y="128.68085106382978" rx="4" ry="4" width="29.301204819277107" height="30.184397163120565" style="fill: rgb(241, 115, 29); stroke-width: 4px; stroke: none; opacity: 0.8;"></rect>
<rect x="32.38554216867472" y="96.9078014184397" rx="4" ry="4" width="29.301204819277107" height="30.184397163120565" style="fill: rgb(248, 135, 14); stroke-width: 4px; stroke: none; opacity: 0.8;"></rect>
<rect x="32.38554216867472" y="65.13475177304963" rx="4" ry="4" width="29.301204819277107" height="30.184397163120565" style="fill: rgb(237, 105, 37); stroke-width: 4px; stroke: none; opacity: 0.8;"></rect>
<rect x="32.38554216867472" y="33.36170212765957" rx="4" ry="4" width="29.301204819277107" height="30.184397163120565" style="fill: rgb(247, 130, 18); stroke-width: 4px; stroke: none; opacity: 0.8;"></rect>
<rect x="32.38554216867472" y="1.5886524822694952" rx="4" ry="4" width="29.301204819277107" height="30.184397163120565" style="fill: rgb(249, 142, 9); stroke-width: 4px; stroke: none; opacity: 0.8;"></rect>
<rect x="1.5421686746988144" y="192.22695035460993" rx="4" ry="4" width="29.301204819277107" height="30.184397163120565" style="fill: rgb(62, 9, 102); stroke-width: 4px; stroke: none; opacity: 0.8;"></rect>
<rect x="1.5421686746988144" y="160.45390070921985" rx="4" ry="4" width="29.301204819277107" height="30.184397163120565" style="fill: rgb(252, 166, 12); stroke-width: 4px; stroke: none; opacity: 0.8;"></rect>
<rect x="1.5421686746988144" y="128.68085106382978" rx="4" ry="4" width="29.301204819277107" height="30.184397163120565" style="fill: rgb(245, 123, 23); stroke-width: 4px; stroke: none; opacity: 0.8;"></rect>
<rect x="1.5421686746988144" y="96.9078014184397" rx="4" ry="4" width="29.301204819277107" height="30.184397163120565" style="fill: rgb(244, 121, 24); stroke-width: 4px; stroke: none; opacity: 0.8;"></rect>
<rect x="1.5421686746988144" y="65.13475177304963" rx="4" ry="4" width="29.301204819277107" height="30.184397163120565" style="fill: rgb(247, 132, 16); stroke-width: 4px; stroke: none; opacity: 0.8;"></rect>
</g>
</svg>