<?xml version="1.0" encoding="UTF-8"?>
<svg width="968" height="256" version="1.1" xmlns="http://www.w3.org/2000/svg" xmlns:cc="http://creativecommons.org/ns#" xmlns:dc="http://purl.org/dc/elements/1.1/" xmlns:rdf="http://www.w3.org/1999/02/22-rdf-syntax-ns#" xmlns:svg="http://www.w3.org/2000/svg">
<g transform="translate(40, 0)">
<g style="font-size: 11px;" transform="translate(0, 224)" fill="none" font-size="10" font-family="sans-serif" text-anchor="middle" class="x_axis"><g class="tick" opacity="1" transform="translate(42.8936170212766,0)"><line stroke="currentColor" y2="0"></line><text fill="currentColor" y="16" dy="0.71em">Apr</text></g><g class="tick" opacity="1" transform="translate(124.59574468085107,0)"><line stroke="currentColor" y2="0"></line><text fill="currentColor" y="16" dy="0.71em">May</text></g><g class="tick" opacity="1" transform="translate(206.29787234042556,0)"><line stroke="currentColor" y2="0"></line><text fill="currentColor" y="16" dy="0.71em">Jun</text></g><g class="tick" opacity="1" transform="translate(288,0)"><line stroke="currentColor" y2="0"></line><text fill="currentColor" y="16" dy="0.71em">Jul</text></g><g class="tick" opacity="1" transform="translate(369.7021276595745,0)"><line stroke="currentColor" y2="0"></line><text fill="currentColor" y="16" dy="0.71em">Aug</text></g><g class="tick" opacity="1" transform="translate(451.40425531914894,0)"><line stroke="currentColor" y2="0"></line><text fill="currentColor" y="16" dy="0.71em">Sep</text></g><g class="tick" opacity="1" transform="translate(533.1063829787234,0)"><line stroke="currentColor" y2="0"></line><text fill="currentColor" y="16" dy="0.71em">Oct</text></g></g><rect x="494.29787234042556" y="96.9078014184397" rx="4" ry="4" width="77.61702127659575" height="30.184397163120565" style="fill: rgb(242, 230, 97); stroke-width: 4px; stroke: none; opacity: 0.8;"></rect>
<rect x="494.29787234042556" y="65.13475177304963" rx="4" ry="4" width="77.61702127659575" height="30.184397163120565" style="fill: rgb(250, 148, 7); stroke-width: 4px; stroke: none; opacity: 0.8;"></rect>
<rect x="494.29787234042556" y="33.36170212765957" rx="4" ry="4" width="77.61702127659575" height="30.184397163120565" style="fill: rgb(239, 110, 33); stroke-width: 4px; stroke: none; opacity: 0.8;"></rect>
<rect x="494.29787234042556" y="1.5886524822694952" rx="4" ry="4" width="77.61702127659575" height="30.184397163120565" style="fill: rgb(248, 207, 58); stroke-width: 4px; stroke: none; opacity: 0.8;"></rect>
<rect x="494.29787234042556" y="192.22695035460993" rx="4" ry="4" width="77.61702127659575" height="30.184397163120565" style="fill: rgb(250, 192, 38); stroke-width: 4px; stroke: none; opacity: 0.8;"></rect>
<rect x="494.29787234042556" y="160.45390070921985" rx="4" ry="4" width="77.61702127659575" height="30.184397163120565" style="fill: rgb(247, 130, 18); stroke-width: 4px; stroke: none; opacity: 0.8;"></rect>
<rect x="494.29787234042556" y="128.68085106382978" rx="4" ry="4" width="77.61702127659575" height="30.184397163120565" style="fill: rgb(245, 217, 73); stroke-width: 4px; stroke: none; opacity: 0.8;"></rect>
<rect x="412.59574468085106" y="128.68085106382978" rx="4" ry="4" width="77.61702127659575" height="30.184397163120565" style="fill: rgb(186, 54, 85); stroke-width: 4px; stroke: none; opacity: 0.8;"></rect>
<rect x="412.59574468085106" y="96.9078014184397" rx="4" ry="4" width="77.61702127659575" height="30.184397163120565" style="fill: rgb(147, 38, 103); stroke-width: 4px; stroke: none; opacity: 0.8;"></rect>
<rect x="412.59574468085106" y="65.13475177304963" rx="4" ry="4" width="77.61702127659575" height="30.184397163120565" style="fill: rgb(208, 69, 69); stroke-width: 4px; stroke: none; opacity: 0.8;"></rect>
<rect x="412.59574468085106" y="33.36170212765957" rx="4" ry="4" width="77.61702127659575" height="30.184397163120565" style="fill: rgb(193, 58, 80); stroke-width: 4px; stroke: none; opacity: 0.8;"></rect>
<rect x="412.59574468085106" y="1.5886524822694952" rx="4" ry="4" width="77.61702127659575" height="30.184397163120565" style="fill: rgb(185, 53, 86); stroke-width: 4px; stroke: none; opacity: 0.8;"></rect>
<rect x="412.59574468085106" y="192.22695035460993" rx="4" ry="4" width="77.61702127659575" height="30.184397163120565" style="fill: rgb(226, 87, 52); stroke-width: 4px; stroke: none; opacity: 0.8;"></rect>
<rect x="412.59574468085106" y="160.45390070921985" rx="4" ry="4" width="77.61702127659575" height="30.184397163120565" style="fill: rgb(233, 97, 43); stroke-width: 4px; stroke: none; opacity: 0.8;"></rect>
<rect x="330.8936170212766" y="65.13475177304963" rx="4" ry="4" width="77.61702127659575" height="30.184397163120565" style="fill: rgb(136, 34, 106); stroke-width: 4px; stroke: none; opacity: 0.8;"></rect>
<rect x="330.8936170212766" y="33.36170212765957" rx="4" ry="4" width="77.61702127659575" height="30.184397163120565" style="fill: rgb(90, 17, 110); stroke-width: 4px; stroke: none; opacity: 0.8;"></rect>
<rect x="330.8936170212766" y="1.5886524822694952" rx="4" ry="4" width="77.61702127659575" height="30.184397163120565" style="fill: rgb(18, 10, 50); stroke-width: 4px; stroke: none; opacity: 0.8;"></rect>
<rect x="330.8936170212766" y="192.22695035460993" rx="4" ry="4" width="77.61702127659575" height="30.184397163120565" style="fill: rgb(174, 48, 92); stroke-width: 4px; stroke: none; opacity: 0.8;"></rect>
<rect x="330.8936170212766" y="160.45390070921985" rx="4" ry="4" width="77.61702127659575" height="30.184397163120565" style="fill: rgb(189, 56, 83); stroke-width: 4px; stroke: none; opacity: 0.8;"></rect>
<rect x="330.8936170212766" y="128.68085106382978" rx="4" ry="4" width="77.61702127659575" height="30.184397163120565" style="fill: rgb(140, 35, 105); stroke-width: 4px; stroke: none; opacity: 0.8;"></rect>
<rect x="330.8936170212766" y="96.9078014184397" rx="4" ry="4" width="77.61702127659575" height="30.184397163120565" style="fill: rgb(224, 85, 54); stroke-width: 4px; stroke: none; opacity: 0.8;"></rect>
<rect x="249.19148936170214" y="192.22695035460993" rx="4" ry="4" width="77.61702127659575" height="30.184397163120565" style="fill: rgb(168, 46, 95); stroke-width: 4px; stroke: none; opacity: 0.8;"></rect>
<rect x="249.19148936170214" y="160.45390070921985" rx="4" ry="4" width="77.61702127659575" height="30.184397163120565" style="fill: rgb(20, 11, 52); stroke-width: 4px; stroke: none; opacity: 0.8;"></rect>
<rect x="249.19148936170214" y="128.68085106382978" rx="4" ry="4" width="77.61702127659575" height="30.184397163120565" style="fill: rgb(147, 38, 103); stroke-width: 4px; stroke: none; opacity: 0.8;"></rect>
<rect x="249.19148936170214" y="96.9078014184397" rx="4" ry="4" width="77.61702127659575" height="30.184397163120565" style="fill: rgb(155, 41, 100); stroke-width: 4px; stroke: none; opacity: 0.8;"></rect>
<rect x="249.19148936170214" y="65.13475177304963" rx="4" ry="4" width="77.61702127659575" height="30.184397163120565" style="fill: rgb(146, 37, 104); stroke-width: 4px; stroke: none; opacity: 0.8;"></rect>
<rect x="249.19148936170214" y="33.36170212765957" rx="4" ry="4" width="77.61702127659575" height="30.184397163120565" style="fill: rgb(128, 31, 108); stroke-width: 4px; stroke: none; opacity: 0.8;"></rect>
<rect x="249.19148936170214" y="1.5886524822694952" rx="4" ry="4" width="77.61702127659575" height="30.184397163120565" style="fill: rgb(155, 41, 100); stroke-width: 4px; stroke: none; opacity: 0.8;"></rect>
<rect x="167.48936170212767" y="96.9078014184397" rx="4" ry="4" width="77.61702127659575" height="30.184397163120565" style="fill: rgb(21, 11, 55); stroke-width: 4px; stroke: none; opacity: 0.8;"></rect>
<rect x="167.48936170212767" y="65.13475177304963" rx="4" ry="4" width="77.61702127659575" height="30.184397163120565" style="fill: rgb(25, 12, 62); stroke-width: 4px; stroke: none; opacity: 0.8;"></rect>
<rect x="167.48936170212767" y="33.36170212765957" rx="4" ry="4" width="77.61702127659575" height="30.184397163120565" style="fill: rgb(108, 24, 110); stroke-width: 4px; stroke: none; opacity: 0.8;"></rect>
<rect x="167.48936170212767" y="1.5886524822694952" rx="4" ry="4" width="77.61702127659575" height="30.184397163120565" style="fill: rgb(185, 53, 86); stroke-width: 4px; stroke: none; opacity: 0.8;"></rect>
<rect x="167.48936170212767" y="192.22695035460993" rx="4" ry="4" width="77.61702127659575" height="30.184397163120565" style="fill: rgb(213, 74, 65); stroke-width: 4px; stroke: none; opacity: 0.8;"></rect>
<rect x="167.48936170212767" y="160.45390070921985" rx="4" ry="4" width="77.61702127659575" height="30.184397163120565" style="fill: rgb(217, 77, 61); stroke-width: 4px; stroke: none; opacity: 0.8;"></rect>
<rect x="167.48936170212767" y="128.68085106382978" rx="4" ry="4" width="77.61702127659575" height="30.184397163120565" style="fill: rgb(179, 50, 90); stroke-width: 4px; stroke: none; opacity: 0.8;"></rect>
<rect x="85.7872340425532" y="33.36170212765957" rx="4" ry="4" width="77.61702127659575" height="30.184397163120565" style="fill: rgb(73, 11, 106); stroke-width: 4px; stroke: none; opacity: 0.8;"></rect>
<rect x="85.7872340425532" y="1.5886524822694952" rx="4" ry="4" width="77.61702127659575" height="30.184397163120565" style="fill: rgb(117, 27, 110); stroke-width: 4px; stroke: none; opacity: 0.8;"></rect>
<rect x="85.7872340425532" y="192.22695035460993" rx="4" ry="4" width="77.61702127659575" height="30.184397163120565" style="fill: rgb(101, 21, 110); stroke-width: 4px; stroke: none; opacity: 0.8;"></rect>
<rect x="85.7872340425532" y="160.45390070921985" rx="4" ry="4" width="77.61702127659575" height="30.184397163120565" style="fill: rgb(152, 39, 102); stroke-width: 4px; stroke: none; opacity: 0.8;"></rect>
<rect x="85.7872340425532" y="128.68085106382978" rx="4" ry="4" width="77.61702127659575" height="30.184397163120565" style="fill: rgb(168, 46, 95); stroke-width: 4px; stroke: none; opacity: 0.8;"></rect>
<rect x="85.7872340425532" y="96.9078014184397" rx="4" ry="4" width="77.61702127659575" height="30.184397163120565" style="fill: rgb(144, 37, 104); stroke-width: 4px; stroke: none; opacity: 0.8;"></rect>
<rect x="85.7872340425532" y="65.13475177304963" rx="4" ry="4" width="77.61702127659575" height="30.184397163120565" style="fill: rgb(111, 25, 110); stroke-width: 4px; stroke: none; opacity: 0.8;"></rect>
<rect x="4.085106382978722" y="160.45390070921985" rx="4" ry="4" width="77.61702127659575" height="30.184397163120565" style="fill: rgb(252, 165, 10); stroke-width: 4px; stroke: none; opacity: 0.8;"></rect>
<rect x="4.085106382978722" y="128.68085106382978" rx="4" ry="4" width="77.61702127659575" height="30.184397163120565" style="fill: rgb(239, 110, 33); stroke-width: 4px; stroke: none; opacity: 0.8;"></rect>
<rect x="4.085106382978722" y="96.9078014184397" rx="4" ry="4" width="77.61702127659575" height="30.184397163120565" style="fill: rgb(248, 135, 14); stroke-width: 4px; stroke: none; opacity: 0.8;"></rect>
<rect x="4.085106382978722" y="65.13475177304963" rx="4" ry="4" width="77.61702127659575" height="30.184397163120565" style="fill: rgb(246, 126, 20); stroke-width: 4px; stroke: none; opacity: 0.8;"></rect>
<rect x="4.085106382978722" y="33.36170212765957" rx="4" ry="4" width="77.61702127659575" height="30.184397163120565" style="fill: rgb(249, 203, 53); stroke-width: 4px; stroke: none; opacity: 0.8;"></rect>
<rect x="4.085106382978722" y="1.5886524822694952" rx="4" ry="4" width="77.61702127659575" height="30.184397163120565" style="fill: rgb(244, 223, 83); stroke-width: 4px; stroke: none; opacity: 0.8;"></rect>
<rect x="4.085106382978722" y="192.22695035460993" rx="4" ry="4" width="77.61702127659575" height="30.184397163120565" style="fill: rgb(237, 105, 37); stroke-width: 4px; stroke: none; opacity: 0.8;"></rect></g></svg>