<?xml version="1.0" encoding="UTF-8"?>
<svg width="328" height="64" transform="translate(0, 8)" version="1.1" xmlns="http://www.w3.org/2000/svg" xmlns:cc="http://creativecommons.org/ns#" xmlns:dc="http://purl.org/dc/elements/1.1/" xmlns:rdf="http://www.w3.org/1999/02/22-rdf-syntax-ns#" xmlns:svg="http://www.w3.org/2000/svg">
    <rect fill="#efebe9" x="16" y="20" rx="4" ry="4" style="stroke-width: 4px; stroke: none; opacity: 0.8;" width="21.333333333333332" height="21.333333333333332"></rect>
    <rect fill="#fcffa4" x="47.33333333333333" y="20" rx="4" ry="4" style="stroke-width: 4px; stroke: none; opacity: 0.8;" width="21.333333333333332" height="21.333333333333332"></rect>
    <rect fill="#fac228" x="70.66666666666666" y="20" rx="4" ry="4" style="stroke-width: 4px; stroke: none; opacity: 0.8;" width="21.333333333333332" height="21.333333333333332"></rect>
    <rect fill="#f57d15" x="94" y="20" rx="4" ry="4" style="stroke-width: 4px; stroke: none; opacity: 0.8;" width="21.333333333333332" height="21.333333333333332"></rect>
    <rect fill="#d44842" x="117.33333333333333" y="20" rx="4" ry="4" style="stroke-width: 4px; stroke: none; opacity: 0.8;" width="21.333333333333332" height="21.333333333333332"></rect>
    <rect fill="#9f2a63" x="140.66666666666666" y="20" rx="4" ry="4" style="stroke-width: 4px; stroke: none; opacity: 0.8;" width="21.333333333333332" height="21.333333333333332"></rect>
    <rect fill="#65156e" x="164" y="20" rx="4" ry="4" style="stroke-width: 4px; stroke: none; opacity: 0.8;" width="21.333333333333332" height="21.333333333333332"></rect>
    <rect fill="#280b53" x="187.33333333333331" y="20" rx="4" ry="4" style="stroke-width: 4px; stroke: none; opacity: 0.8;" width="21.333333333333332" height="21.333333333333332"></rect>
    <text x="16" y="32" dy="21.333333333333332" text-anchor="start" font-size="11">N/D</text>
    <text x="48.666666666666664" y="32" dy="21.333333333333332" text-anchor="start" font-size="11">10k</text>
    <text x="72" y="32" dy="21.333333333333332" text-anchor="start" font-size="11">20k</text>
    <text x="95.33333333333333" y="32" dy="21.333333333333332" text-anchor="start" font-size="11">30k</text>
    <text x="118.66666666666666" y="32" dy="21.333333333333332" text-anchor="start" font-size="11">40k</text>
    <text x="142" y="32" dy="21.333333333333332" text-anchor="start" font-size="11">50k</text>
    <text x="165.33333333333334" y="32" dy="21.333333333333332" text-anchor="start" font-size="11">60k</text>
    <text x="188.66666666666666" y="32" dy="21.333333333333332" text-anchor="start" font-size="11">70k</text>
    <text x="16" y="12" font-size="14">Steps</text>
</svg>